<svg width="18" height="15" viewBox="0 0 18 15" fill="none" xmlns="http://www.w3.org/2000/svg">
<path d="M15.8797 4.17969L9.2 8.32031L2.52031 4.17969V2.5L9.2 6.67969L15.8797 2.5V4.17969ZM15.8797 0.820312H2.52031C2.05156 0.846354 1.66094 1.01562 1.34844 1.32812C1.03594 1.64062 0.879687 2.03125 0.879687 2.5V12.5C0.879687 12.9688 1.03594 13.3594 1.34844 13.6719C1.66094 13.9844 2.05156 14.1536 2.52031 14.1797H15.8797C16.3484 14.1536 16.7391 13.9844 17.0516 13.6719C17.3641 13.3594 17.5203 12.9688 17.5203 12.5V2.5C17.5203 2.03125 17.3641 1.64062 17.0516 1.32812C16.7391 1.01562 16.3484 0.846354 15.8797 0.820312Z" fill="#828282"/>
</svg>
