<svg width="20" height="19" viewBox="0 0 20 19" fill="none" xmlns="http://www.w3.org/2000/svg">
<path opacity="0.7" d="M8.5 15.4844L4.98438 12.0156L6.39062 10.6094L8.5 12.6719L13.7031 7.51562L15.1094 8.92188L8.5 15.4844ZM7.98438 1.98438H12.0156V4H7.98438V1.98438ZM18.0156 4H13.9844V1.98438L12.0156 0.015625H7.98438L6.01562 1.98438V4H1.98438C1.42188 4 0.953125 4.1875 0.578125 4.5625C0.203125 4.9375 0.015625 5.42188 0.015625 6.01562V16.9844C0.015625 17.5781 0.203125 18.0625 0.578125 18.4375C0.953125 18.8125 1.42188 19 1.98438 19H18.0156C18.5781 19 19.0469 18.8125 19.4219 18.4375C19.7969 18.0625 19.9844 17.5781 19.9844 16.9844V6.01562C19.9844 5.42188 19.7969 4.9375 19.4219 4.5625C19.0469 4.1875 18.5781 4 18.0156 4Z" fill="white"/>
</svg>
