<svg width="25" height="24" viewBox="0 0 25 24" fill="none" xmlns="http://www.w3.org/2000/svg">
<rect width="25" height="24" fill="black" fill-opacity="0"/>
<path d="M12.24 1.01562C15.0837 1.07812 17.4431 2.04688 19.3181 3.92188C21.1931 5.79688 22.1619 8.15625 22.2244 11C22.1619 13.8438 21.1931 16.2031 19.3181 18.0781C17.4431 19.9531 15.0837 20.9219 12.24 20.9844C9.39625 20.9219 7.03687 19.9531 5.16187 18.0781C3.28687 16.2031 2.31812 13.8438 2.25562 11C2.31812 8.15625 3.28687 5.79688 5.16187 3.92188C7.03687 2.04688 9.39625 1.07812 12.24 1.01562ZM12.24 2.98438C9.95875 3.04687 8.06812 3.82812 6.56812 5.32812C5.06812 6.82812 4.28687 8.71875 4.22437 11C4.28687 13.2812 5.06812 15.1719 6.56812 16.6719C8.06812 18.1719 9.95875 18.9531 12.24 19.0156C14.5212 18.9531 16.4119 18.1719 17.9119 16.6719C19.4119 15.1719 20.1931 13.2812 20.2556 11C20.1931 8.71875 19.4119 6.82812 17.9119 5.32812C16.4119 3.82812 14.5212 3.04687 12.24 2.98438ZM11.2556 15.5L6.75562 11L8.16187 9.59375L11.2556 12.6875L16.8337 7.10938L18.24 8.51562L11.2556 15.5Z" fill="#219653"/>
<rect width="11" height="11" fill="black" fill-opacity="0" transform="translate(14 13)"/>
<rect width="11" height="11" fill="black" fill-opacity="0" transform="translate(14 13)"/>
<rect x="14" y="17" width="11" height="4" fill="#F2F2F2"/>
<rect x="22" y="13" width="11" height="4" transform="rotate(90 22 13)" fill="#F2F2F2"/>
<rect width="8" height="8" fill="black" fill-opacity="0" transform="translate(16 15)"/>
<rect x="16" y="18" width="8" height="2" fill="#219653"/>
<rect x="21" y="15" width="8" height="2" transform="rotate(90 21 15)" fill="#219653"/>
</svg>
