<svg width="30" height="24" viewBox="0 0 30 24" fill="none" xmlns="http://www.w3.org/2000/svg">
<path d="M11.3814 20.9844C11.1002 20.9844 10.8658 20.8906 10.6783 20.7031C10.4908 20.5156 10.397 20.2812 10.397 20V17H6.36579C5.80329 17 5.33454 16.8125 4.95954 16.4375C4.58454 16.0312 4.39704 15.5469 4.39704 14.9844V2.98438C4.39704 2.42188 4.58454 1.95312 4.95954 1.57812C5.33454 1.20312 5.80329 1.01562 6.36579 1.01562H22.397C22.9595 1.01562 23.4283 1.20312 23.8033 1.57812C24.1783 1.95312 24.3658 2.42188 24.3658 2.98438V14.9844C24.3658 15.5469 24.1783 16.0312 23.8033 16.4375C23.4283 16.8125 22.9595 17 22.397 17H16.3033L12.6002 20.7031C12.3814 20.8906 12.147 20.9844 11.897 20.9844H11.3814ZM12.3658 14.9844V18.0781L15.4595 14.9844H22.397V2.98438H6.36579V14.9844H12.3658ZM18.8814 7.01562L13.397 12.5L9.88141 8.98438L11.2877 7.57812L13.397 9.6875L17.4752 5.60938L18.8814 7.01562Z" fill="#219653"/>
<rect x="16.5" y="16.9883" width="12.963" height="3.9969" fill="#F2F2F2"/>
<rect x="25.9277" y="12.9922" width="10.9915" height="4.7138" transform="rotate(90 25.9277 12.9922)" fill="#F2F2F2"/>
<rect x="18.8535" y="17.9883" width="9.42761" height="1.99845" fill="#219653"/>
<rect x="24.7461" y="14.9922" width="7.99381" height="2.3569" transform="rotate(90 24.7461 14.9922)" fill="#219653"/>
</svg>
