<svg width="29" height="24" viewBox="0 0 29 24" fill="none" xmlns="http://www.w3.org/2000/svg">
<path d="M15.3658 8.01953H20.897L15.3658 2.53516V8.01953ZM8.38141 1.03516H16.397L22.397 7.03516V19.0352C22.3658 19.5977 22.1627 20.0664 21.7877 20.4414C21.4127 20.8164 20.9439 21.0039 20.3814 21.0039H8.38141C7.81891 21.0039 7.35016 20.8164 6.97516 20.4414C6.60016 20.0664 6.39704 19.5977 6.36579 19.0352V3.00391C6.39704 2.44141 6.60016 1.97266 6.97516 1.59766C7.35016 1.22266 7.81891 1.03516 8.38141 1.03516ZM13.397 3.00391H8.38141V19.0352H20.3814V10.0352H13.397V3.00391Z" fill="#219653"/>
<rect x="15.3203" y="17.0039" width="12.963" height="3.9969" fill="#F2F2F2"/>
<rect x="24.748" y="13.0078" width="10.9915" height="4.7138" transform="rotate(90 24.748 13.0078)" fill="#F2F2F2"/>
<rect x="17.6758" y="18.0039" width="9.42761" height="1.99845" fill="#219653"/>
<rect x="23.5684" y="15.0078" width="7.99381" height="2.3569" transform="rotate(90 23.5684 15.0078)" fill="#219653"/>
</svg>
