<svg width="30" height="24" viewBox="0 0 30 24" fill="none" xmlns="http://www.w3.org/2000/svg">
<path d="M14.3814 1.01562C17.2252 1.07812 19.5845 2.04688 21.4595 3.92188C23.3345 5.79688 24.3033 8.15625 24.3658 11C24.3033 13.8438 23.3345 16.2031 21.4595 18.0781C19.5845 19.9531 17.2252 20.9219 14.3814 20.9844C11.5377 20.9219 9.17829 19.9531 7.30329 18.0781C5.42829 16.2031 4.45954 13.8438 4.39704 11C4.45954 8.15625 5.42829 5.79688 7.30329 3.92188C9.17829 2.04688 11.5377 1.07812 14.3814 1.01562ZM14.3814 2.98438C12.1002 3.04687 10.2095 3.82812 8.70954 5.32812C7.20954 6.82812 6.42829 8.71875 6.36579 11C6.42829 13.2812 7.20954 15.1719 8.70954 16.6719C10.2095 18.1719 12.1002 18.9531 14.3814 19.0156C16.6627 18.9531 18.5533 18.1719 20.0533 16.6719C21.5533 15.1719 22.3345 13.2812 22.397 11C22.3345 8.71875 21.5533 6.82812 20.0533 5.32812C18.5533 3.82812 16.6627 3.04687 14.3814 2.98438ZM13.397 15.5L8.89704 11L10.3033 9.59375L13.397 12.6875L18.9752 7.10938L20.3814 8.51562L13.397 15.5Z" fill="#219653"/>
<rect x="16.5" y="16.9883" width="12.963" height="3.9969" fill="#F2F2F2"/>
<rect x="25.9277" y="12.9922" width="10.9915" height="4.7138" transform="rotate(90 25.9277 12.9922)" fill="#F2F2F2"/>
<rect x="18.8555" y="17.9883" width="9.42761" height="1.99845" fill="#219653"/>
<rect x="24.75" y="14.9922" width="7.99381" height="2.3569" transform="rotate(90 24.75 14.9922)" fill="#219653"/>
</svg>
