<svg width="14" height="17" viewBox="0 0 14 17" fill="none" xmlns="http://www.w3.org/2000/svg">
<path d="M8.02031 6H12.6297L8.02031 1.42969V6ZM2.2 0.179688H8.87969L13.8797 5.17969V15.1797C13.8536 15.6484 13.6844 16.0391 13.3719 16.3516C13.0594 16.6641 12.6687 16.8203 12.2 16.8203H2.2C1.73125 16.8203 1.34062 16.6641 1.02812 16.3516C0.715625 16.0391 0.546354 15.6484 0.520312 15.1797V1.82031C0.546354 1.35156 0.715625 0.960938 1.02812 0.648438C1.34062 0.335938 1.73125 0.179688 2.2 0.179688ZM6.37969 1.82031H2.2V15.1797H12.2V7.67969H6.37969V1.82031Z" fill="#219653"/>
</svg>
