<svg width="20" height="20" viewBox="0 0 20 20" fill="none" xmlns="http://www.w3.org/2000/svg">
<path opacity="0.7" d="M2.21875 9.29688L9.29688 2.21875C10.5156 1.0625 11.9219 0.484375 13.5156 0.484375C15.1094 0.484375 16.5312 1.0625 17.7812 2.21875C18.9375 3.4375 19.5156 4.85938 19.5156 6.48438C19.5156 8.07812 18.9375 9.48438 17.7812 10.7031L10.7031 17.7812C9.48438 18.9375 8.0625 19.5156 6.4375 19.5156C4.84375 19.5156 3.4375 18.9375 2.21875 17.7812C1.0625 16.5312 0.484375 15.1094 0.484375 13.5156C0.484375 11.9219 1.0625 10.5156 2.21875 9.29688ZM3.625 10.7031C3.125 11.2344 2.78125 11.8438 2.59375 12.5312C2.40625 13.2188 2.40625 13.8906 2.59375 14.5469L8.59375 8.59375L12.8125 12.8125L16.375 9.29688C17.1562 8.48438 17.5469 7.54688 17.5469 6.48438C17.5469 5.42188 17.1406 4.48438 16.3281 3.67188C15.5156 2.85938 14.5781 2.45312 13.5156 2.45312C12.4531 2.45312 11.5156 2.84375 10.7031 3.625L3.625 10.7031Z" fill="white"/>
</svg>
