<svg width="18" height="20" viewBox="0 0 18 20" fill="none" xmlns="http://www.w3.org/2000/svg">
<path opacity="0.7" d="M18 14.5C17.9688 14.9062 17.7969 15.2031 17.4844 15.3906L9.5625 19.7969C9.40625 19.9219 9.21875 19.9844 9 19.9844C8.78125 19.9844 8.59375 19.9219 8.4375 19.7969L0.515625 15.3906C0.203125 15.2031 0.03125 14.9062 0 14.5V5.5C0.03125 5.09375 0.203125 4.79688 0.515625 4.60938L8.4375 0.203125C8.59375 0.078125 8.78125 0.015625 9 0.015625C9.21875 0.015625 9.40625 0.078125 9.5625 0.203125L17.4844 4.60938C17.7969 4.79688 17.9688 5.09375 18 5.5V14.5ZM9 2.17188L3.04688 5.5L9 8.82812L14.9531 5.5L9 2.17188ZM2.01562 13.8906L8.01562 17.3125V10.5625L2.01562 7.1875V13.8906ZM15.9844 13.8906V7.1875L9.98438 10.5625V17.3125L15.9844 13.8906Z" fill="white"/>
</svg>
