<svg width="18" height="20" viewBox="0 0 18 20" fill="none" xmlns="http://www.w3.org/2000/svg">
<path opacity="0.7" d="M9.98438 7H15.5156L9.98438 1.51562V7ZM3 0.015625H11.0156L17.0156 6.01562V18.0156C16.9844 18.5781 16.7812 19.0469 16.4062 19.4219C16.0312 19.7969 15.5625 19.9844 15 19.9844H3C2.4375 19.9844 1.96875 19.7969 1.59375 19.4219C1.21875 19.0469 1.01562 18.5781 0.984375 18.0156V1.98438C1.01562 1.42188 1.21875 0.953125 1.59375 0.578125C1.96875 0.203125 2.4375 0.015625 3 0.015625ZM8.01562 1.98438H3V18.0156H15V9.01562H8.01562V1.98438Z" fill="white"/>
</svg>
