<svg width="24" height="24" viewBox="0 0 24 24" fill="none" xmlns="http://www.w3.org/2000/svg">
<rect width="24" height="24" fill="black" fill-opacity="0"/>
<path d="M12.24 16.0156L7.22437 11H10.2244V7.01562H14.2556V11H17.2556L12.24 16.0156ZM5.25562 2H19.2244C19.7869 2 20.2556 2.20312 20.6306 2.60938C21.0369 2.98438 21.24 3.45312 21.24 4.01562V17.9844C21.24 18.5469 21.0369 19.0312 20.6306 19.4375C20.2556 19.8125 19.7869 20 19.2244 20H5.25562C4.69312 20 4.20875 19.8125 3.8025 19.4375C3.4275 19.0312 3.24 18.5469 3.24 17.9844V4.01562C3.24 3.45312 3.4275 2.98438 3.8025 2.60938C4.20875 2.20312 4.69312 2 5.25562 2ZM5.25562 4.01562V17.9844H19.2244V4.01562H5.25562Z" fill="#219653"/>
</svg>
