<svg width="13" height="17" viewBox="0 0 13 17" fill="none" xmlns="http://www.w3.org/2000/svg">
<path d="M6.2 8.07031C5.60104 8.07031 5.10625 7.875 4.71562 7.48438C4.325 7.09375 4.12969 6.59896 4.12969 6C4.12969 5.40104 4.325 4.90625 4.71562 4.51562C5.10625 4.125 5.60104 3.92969 6.2 3.92969C6.79896 3.92969 7.29375 4.125 7.68437 4.51562C8.075 4.90625 8.27031 5.40104 8.27031 6C8.27031 6.59896 8.075 7.09375 7.68437 7.48438C7.29375 7.875 6.79896 8.07031 6.2 8.07031ZM6.2 0.179688C4.53333 0.205729 3.15312 0.765625 2.05937 1.85938C0.965625 2.95312 0.405729 4.33333 0.379687 6C0.614062 8.36979 1.5776 10.7266 3.27031 13.0703C4.98906 15.388 5.96562 16.638 6.2 16.8203C6.43437 16.638 7.39792 15.388 9.09062 13.0703C10.8094 10.7266 11.7859 8.36979 12.0203 6C11.9943 4.33333 11.4344 2.95312 10.3406 1.85938C9.24687 0.765625 7.86667 0.205729 6.2 0.179688Z" fill="#219653"/>
</svg>
