<svg width="18" height="20" viewBox="0 0 18 20" fill="none" xmlns="http://www.w3.org/2000/svg">
<path d="M12.9844 15.0156H3.98438V8.5C4.01562 7.21875 4.45312 6.15625 5.29688 5.3125C6.14062 4.46875 7.20312 4.04688 8.48438 4.04688C9.76562 4.04688 10.8281 4.46875 11.6719 5.3125C12.5156 6.15625 12.9531 7.21875 12.9844 8.5V15.0156ZM15 13.9844V8.5C14.9688 6.9375 14.4844 5.59375 13.5469 4.46875C12.6406 3.3125 11.4531 2.54688 9.98438 2.17188V1.51562C9.98438 1.07813 9.84375 0.71875 9.5625 0.4375C9.28125 0.15625 8.92188 0.015625 8.48438 0.015625C8.07812 0.015625 7.73438 0.15625 7.45312 0.4375C7.17188 0.71875 7.01562 1.07813 6.98438 1.51562V2.17188C5.51562 2.54688 4.32812 3.3125 3.42188 4.46875C2.51562 5.59375 2.04688 6.9375 2.01562 8.5V13.9844L0 16V16.9844H17.0156V16L15 13.9844ZM8.48438 19.9844C9.04688 19.9844 9.51562 19.7969 9.89062 19.4219C10.2969 19.0469 10.5 18.5781 10.5 18.0156H6.51562C6.51562 18.5781 6.70312 19.0469 7.07812 19.4219C7.45312 19.7969 7.92188 19.9844 8.48438 19.9844Z" fill="white"/>
</svg>
