<svg width="16" height="16" viewBox="0 0 16 16" fill="none" xmlns="http://www.w3.org/2000/svg">
<path d="M2.39991 14.7987C1.99991 14.7987 1.66657 14.5987 1.33324 14.332C0.933239 13.932 0.866572 13.4654 0.999906 12.932C1.39991 11.7987 3.26658 10.8654 5.06658 10.1987C5.33324 9.66537 5.53324 9.06536 5.73324 8.46536C5.93324 7.86536 6.06657 7.26536 6.19991 6.66536C5.06657 5.06536 4.13324 3.26536 4.53324 2.06536C4.66657 1.5987 5.06657 1.26536 5.5999 1.13203C6.13323 0.998698 6.5999 1.13203 6.93323 1.53203C7.73323 2.46536 7.5999 4.53203 7.26657 6.3987C7.5999 6.86537 7.9999 7.3987 8.46657 7.86537C8.86657 8.33203 9.33324 8.7987 9.7999 9.1987C11.7332 8.9987 13.7999 9.13203 14.5999 9.9987C14.9332 10.3987 15.0666 10.8654 14.8666 11.3987C14.6666 11.932 14.3332 12.2654 13.7999 12.3987C12.5999 12.6654 10.8666 11.532 9.39991 10.2654C8.79991 10.332 8.19991 10.4654 7.53324 10.5987C6.93324 10.732 6.26658 10.8654 5.73324 11.0654C4.93324 12.7987 3.7999 14.5987 2.5999 14.7987C2.5999 14.7987 2.46658 14.7987 2.39991 14.7987ZM4.46657 11.532C3.13324 12.0654 2.19991 12.732 1.99991 13.2654C1.93324 13.3987 1.93324 13.4654 2.13324 13.6654C2.26657 13.8654 2.39991 13.8654 2.53324 13.7987C2.99991 13.732 3.73324 12.7987 4.46657 11.532ZM10.9332 10.132C12.0666 10.9987 13.1332 11.532 13.6666 11.3987C13.7999 11.3987 13.8666 11.332 13.9332 11.0654C13.9999 10.8654 13.9332 10.732 13.8666 10.6654C13.5332 10.332 12.3999 10.132 10.9332 10.132ZM6.99991 7.66536C6.86657 8.06536 6.79991 8.3987 6.66657 8.73203C6.53324 9.06536 6.3999 9.3987 6.26657 9.7987C6.66657 9.66536 7.06658 9.5987 7.39991 9.53203C7.73324 9.46537 8.13324 9.3987 8.53324 9.33203C8.26657 9.06536 7.99991 8.7987 7.73324 8.53203C7.53324 8.33203 7.26657 7.9987 6.99991 7.66536ZM5.93324 2.13203C5.86657 2.13203 5.86657 2.13203 5.7999 2.13203C5.53324 2.1987 5.53324 2.26536 5.46657 2.3987C5.26657 2.93203 5.73324 3.9987 6.46657 5.26536C6.66657 3.7987 6.59991 2.66536 6.19991 2.26536C6.19991 2.1987 6.13323 2.13203 5.93324 2.13203Z" fill="#D10000"/>
</svg>
