<svg width="18" height="20" viewBox="0 0 18 20" fill="none" xmlns="http://www.w3.org/2000/svg">
<path opacity="0.7" d="M15 17.9844H3V16.5781C3.125 15.5781 3.875 14.8125 5.25 14.2812C6.625 13.75 7.875 13.4844 9 13.4844C10.125 13.4844 11.375 13.75 12.75 14.2812C14.125 14.8125 14.875 15.5781 15 16.5781V17.9844ZM9 5.98438C9.84375 6.01562 10.5469 6.3125 11.1094 6.875C11.6719 7.4375 11.9531 8.15625 11.9531 9.03125C11.9531 9.875 11.6719 10.5781 11.1094 11.1406C10.5469 11.7031 9.84375 11.9844 9 11.9844C8.15625 11.9844 7.45312 11.7031 6.89062 11.1406C6.32812 10.5781 6.04688 9.875 6.04688 9.03125C6.04688 8.15625 6.32812 7.4375 6.89062 6.875C7.45312 6.3125 8.15625 6.01562 9 5.98438ZM9 2C9.28125 2 9.51562 2.09375 9.70312 2.28125C9.89062 2.46875 9.98438 2.70312 9.98438 2.98438C9.98438 3.26562 9.89062 3.5 9.70312 3.6875C9.51562 3.875 9.28125 3.96875 9 3.96875C8.71875 3.96875 8.48438 3.875 8.29688 3.6875C8.10938 3.5 8.01562 3.26562 8.01562 2.98438C8.01562 2.70312 8.10938 2.46875 8.29688 2.28125C8.48438 2.09375 8.71875 2 9 2ZM15.9844 2H11.8125C11.5938 1.40625 11.2344 0.9375 10.7344 0.59375C10.2344 0.21875 9.65625 0.03125 9 0.03125C8.34375 0.03125 7.76562 0.21875 7.26562 0.59375C6.76562 0.9375 6.40625 1.40625 6.1875 2H2.01562C1.45312 2 0.96875 2.20312 0.5625 2.60938C0.1875 2.98438 0 3.45312 0 4.01562V17.9844C0 18.5469 0.1875 19.0312 0.5625 19.4375C0.96875 19.8125 1.45312 20 2.01562 20H15.9844C16.5469 20 17.0156 19.8125 17.3906 19.4375C17.7969 19.0312 18 18.5469 18 17.9844V4.01562C18 3.45312 17.7969 2.98438 17.3906 2.60938C17.0156 2.20312 16.5469 2 15.9844 2Z" fill="white"/>
</svg>
