<svg width="16" height="17" viewBox="0 0 16 17" fill="none" xmlns="http://www.w3.org/2000/svg">
<path d="M15.7 12.25C15.674 12.5885 15.5307 12.8359 15.2703 12.9922L8.66875 16.6641C8.53854 16.7682 8.38229 16.8203 8.2 16.8203C8.01771 16.8203 7.86146 16.7682 7.73125 16.6641L1.12969 12.9922C0.869271 12.8359 0.726041 12.5885 0.7 12.25V4.75C0.726041 4.41146 0.869271 4.16406 1.12969 4.00781L7.73125 0.335938C7.86146 0.231771 8.01771 0.179688 8.2 0.179688C8.38229 0.179688 8.53854 0.231771 8.66875 0.335938L15.2703 4.00781C15.5307 4.16406 15.674 4.41146 15.7 4.75V12.25ZM8.2 1.97656L3.23906 4.75L8.2 7.52344L13.1609 4.75L8.2 1.97656ZM2.37969 11.7422L7.37969 14.5938V8.96875L2.37969 6.15625V11.7422ZM14.0203 11.7422V6.15625L9.02031 8.96875V14.5938L14.0203 11.7422Z" fill="#219653"/>
</svg>
