<svg width="20" height="20" viewBox="0 0 20 20" fill="none" xmlns="http://www.w3.org/2000/svg">
<path opacity="0.7" d="M10 0.015625C12.8438 0.078125 15.2031 1.04688 17.0781 2.92188C18.9531 4.79688 19.9219 7.15625 19.9844 10C19.9219 12.8438 18.9531 15.2031 17.0781 17.0781C15.2031 18.9531 12.8438 19.9219 10 19.9844C7.15625 19.9219 4.79688 18.9531 2.92188 17.0781C1.04688 15.2031 0.078125 12.8438 0.015625 10C0.078125 7.15625 1.04688 4.79688 2.92188 2.92188C4.79688 1.04688 7.15625 0.078125 10 0.015625ZM10 1.98438C7.71875 2.04688 5.82812 2.82812 4.32812 4.32812C2.82812 5.82812 2.04688 7.71875 1.98438 10C2.04688 12.2812 2.82812 14.1719 4.32812 15.6719C5.82812 17.1719 7.71875 17.9531 10 18.0156C12.2812 17.9531 14.1719 17.1719 15.6719 15.6719C17.1719 14.1719 17.9531 12.2812 18.0156 10C17.9531 7.71875 17.1719 5.82812 15.6719 4.32812C14.1719 2.82812 12.2812 2.04688 10 1.98438ZM9.01562 14.5L4.51562 10L5.92188 8.59375L9.01562 11.6875L14.5938 6.10938L16 7.51562L9.01562 14.5Z" fill="white"/>
</svg>
