<svg width="18" height="17" viewBox="0 0 18 17" fill="none" xmlns="http://www.w3.org/2000/svg">
<path d="M9.2 0.179688C11.5698 0.231771 13.5359 1.03906 15.0984 2.60156C16.6609 4.16406 17.4682 6.13021 17.5203 8.5C17.4682 10.8698 16.6609 12.8359 15.0984 14.3984C13.5359 15.9609 11.5698 16.7682 9.2 16.8203C6.83021 16.7682 4.86406 15.9609 3.30156 14.3984C1.73906 12.8359 0.931771 10.8698 0.879687 8.5C0.931771 6.13021 1.73906 4.16406 3.30156 2.60156C4.86406 1.03906 6.83021 0.231771 9.2 0.179688ZM9.2 1.82031C7.29896 1.8724 5.72344 2.52344 4.47344 3.77344C3.22344 5.02344 2.5724 6.59896 2.52031 8.5C2.5724 10.401 3.22344 11.9766 4.47344 13.2266C5.72344 14.4766 7.29896 15.1276 9.2 15.1797C11.101 15.1276 12.6766 14.4766 13.9266 13.2266C15.1766 11.9766 15.8276 10.401 15.8797 8.5C15.8276 6.59896 15.1766 5.02344 13.9266 3.77344C12.6766 2.52344 11.101 1.8724 9.2 1.82031ZM8.37969 12.25L4.62969 8.5L5.80156 7.32812L8.37969 9.90625L13.0281 5.25781L14.2 6.42969L8.37969 12.25Z" fill="#219653"/>
</svg>
