<svg width="23" height="18" viewBox="0 0 23 18" fill="none" xmlns="http://www.w3.org/2000/svg">
<path d="M12.2244 9H19.2556V10.5H12.2244V9ZM12.2244 6.51562H19.2556V8.01562H12.2244V6.51562ZM12.2244 11.4844H19.2556V12.9844H12.2244V11.4844ZM20.24 0.984375H2.24C1.6775 1.01563 1.20875 1.21875 0.83375 1.59375C0.45875 1.96875 0.255625 2.4375 0.224375 3V15.9844C0.255625 16.5469 0.45875 17.0312 0.83375 17.4375C1.20875 17.8125 1.6775 18 2.24 18H20.24C20.8025 18 21.2712 17.8125 21.6462 17.4375C22.0212 17.0312 22.2244 16.5469 22.2556 15.9844V3C22.2244 2.4375 22.0212 1.96875 21.6462 1.59375C21.2712 1.21875 20.8025 1.01563 20.24 0.984375ZM20.24 15.9844H11.24V3H20.24V15.9844Z" fill="#219653"/>
</svg>
