<svg width="18" height="17" viewBox="0 0 18 17" fill="none" xmlns="http://www.w3.org/2000/svg">
<path d="M17.1297 7.48438L10.2156 0.570312C9.90312 0.283854 9.56458 0.140625 9.2 0.140625C8.83542 0.140625 8.49687 0.283854 8.18437 0.570312L1.27031 7.48438C0.983854 7.79688 0.840625 8.13542 0.840625 8.5C0.840625 8.86458 0.983854 9.20312 1.27031 9.51562L8.18437 16.4297C8.49687 16.7161 8.83542 16.8594 9.2 16.8594C9.56458 16.8594 9.90312 16.7161 10.2156 16.4297L17.1297 9.51562C17.3641 9.20312 17.4812 8.86458 17.4812 8.5C17.4812 8.13542 17.3641 7.79688 17.1297 7.48438Z" fill="#219653"/>
</svg>
